# xmcd
#
# Track frame offsets:
#	150
#	13287
#	25316
#	38389
#	47900
#	61330
#	75703
#	87004
#	98393
#	109473
#	122072
#	132822
#	144838
#	158748
#	170404
#
# Disc length: 2474 seconds
#
# Revision: 1
# Processed by: cddbd v1.5.2PL0 Copyright (c) Steve Scherf et al.
# Submitted via: audiograbber 1.82.01
#
DISCID=b509a80f
DTITLE=George Jones - Disc 2 - Country Storyteller
DYEAR=2004
DGENRE=Country
TTITLE0=George Jones  -Things Have Gone To Pieces
TTITLE1=George Jones - Small Time Labouring Man
TTITLE2=George Jones - Hello Darlin'
TTITLE3=George Jones - Lonely Street
TTITLE4=George Jones - Almost Persuaded
TTITLE5=George Jones - Where Could I Go
TTITLE6=George Jones - Hangin' On
TTITLE7=George Jones - Talk Back Tremblin' Lips
TTITLE8=George Jones - Swinging Doors
TTITLE9=George Jones -  Don't Be Angry
TTITLE10=George Jones - Don't Be Angry
TTITLE11=George Jones - Who'll Turn Out The Lights
TTITLE12=George Jones - All I Have To Offer You
TTITLE13=George Jones - The Shoe Goes On The Other Foot
TTITLE14=George Jones - After You
EXTD=
EXTT0=
EXTT1=
EXTT2=
EXTT3=
EXTT4=
EXTT5=
EXTT6=
EXTT7=
EXTT8=
EXTT9=
EXTT10=
EXTT11=
EXTT12=
EXTT13=
EXTT14=
PLAYORDER=
